<?xml version="1.0" encoding="utf-8"?>
<!-- Generator: Adobe Illustrator 22.1.0, SVG Export Plug-In . SVG Version: 6.00 Build 0)  -->
<svg version="1.1" id="Capa_1" xmlns="http://www.w3.org/2000/svg" xmlns:xlink="http://www.w3.org/1999/xlink" x="0px" y="0px"
	 viewBox="0 0 24 24" style="enable-background:new 0 0 24 24;" xml:space="preserve">
<style type="text/css">
	.st0{fill:none;}
	.st1{fill:#FFFFFF;}
</style>
<path class="st0" d="M0,0h24v24H0V0z"/>
<path class="st1" d="M7.9,16.1C7,15.2,7,13.8,7.9,13l2-2l-1-1l-2,2c-1.4,1.4-1.4,3.7,0,5.1s3.7,1.4,5.1,0l2-2l-1-1l-2,2
	C10.2,17,8.8,17,7.9,16.1z M10.5,14.5l4.1-4.1l-1-1l-4.1,4.1L10.5,14.5z M12,6.9l-2,2l1,1l2-2c0.9-0.9,2.3-0.9,3.2,0
	c0.9,0.9,0.9,2.3,0,3.2l-2,2l1,1l2-2c1.4-1.4,1.4-3.7,0-5.1S13.4,5.5,12,6.9z"/>
</svg>
